<svg width="64" height="64" viewBox="0 0 64 64" fill="none" xmlns="http://www.w3.org/2000/svg">
<rect width="64" height="64" rx="32" fill="url(#paint0_linear_2016_148)"/>
<path d="M21.4051 21.0446L21.3551 21.1046C20.7651 21.6746 19.9851 21.9946 19.4351 22.6146C18.9301 23.2309 18.5681 23.9515 18.3751 24.7246C17.8815 26.4519 17.7286 28.2588 17.9251 30.0446C17.9949 30.3168 17.9949 30.6023 17.9251 30.8746C17.8321 31.0476 17.7142 31.2059 17.5751 31.3446C16.8876 32.1672 16.4411 33.1639 16.2851 34.2246C16.1868 34.7754 16.1532 35.3359 16.1851 35.8946C16.1851 35.9946 16.1851 36.1546 16.1851 36.3346L16.7451 36.2346C17.4351 36.1046 18.6851 36.0446 18.3951 35.9646C18.8889 35.6243 19.4148 35.3329 19.9651 35.0946C21.4095 34.0384 23.1798 33.5251 24.9651 33.6446C27.3678 33.6312 29.7596 33.9681 32.0651 34.6446C32.2549 34.6915 32.4346 34.7729 32.5951 34.8846C32.9951 35.2146 32.9351 35.8846 32.8351 36.3446V36.5546C32.8016 36.6036 32.7648 36.6504 32.7251 36.6946L33.0851 37.0046V37.0546H33.2051C33.7181 36.9009 34.2388 36.7741 34.7651 36.6746C35.3288 36.571 35.9027 36.5341 36.4751 36.5646H36.5751L36.6551 36.4846C36.6623 36.4157 36.6849 36.3494 36.7212 36.2906C36.7576 36.2317 36.8068 36.1818 36.8651 36.1446C36.9351 36.1446 37.0351 36.0646 37.0351 35.9846C37.0408 35.9582 37.0408 35.9309 37.0351 35.9046C37.0351 35.7446 37.2751 35.3946 37.3851 35.2646C37.8951 34.6546 39.7651 34.4046 40.5051 34.2046C41.1794 34.016 41.8685 33.8855 42.5651 33.8146C43.3255 33.7461 44.0914 33.773 44.8451 33.8946C44.8451 33.8946 45.0951 33.7546 45.1451 33.7446C45.2986 33.6999 45.4616 33.6999 45.6151 33.7446C45.8151 33.7446 45.9651 33.9446 46.1651 34.0046C46.3249 34.0554 46.4889 34.0922 46.6551 34.1146L47.2251 34.1746L49.1151 34.3446C49.0864 33.864 49.0059 33.3879 48.8751 32.9246C48.5151 31.5046 47.8751 30.1646 47.5751 28.7146C47.4349 27.8685 47.3646 27.0122 47.3651 26.1546C47.3651 25.9146 47.2051 25.0046 47.3651 24.6846C45.7696 22.8543 43.54 21.6966 41.1251 21.4446C39.3443 21.2007 37.5337 21.2888 35.7851 21.7046C35.0911 21.9213 34.3716 22.0457 33.6451 22.0746C32.9594 22.014 32.2859 21.8558 31.6451 21.6046C30.3736 21.2207 29.0725 20.9431 27.7551 20.7746C25.6419 20.4344 23.4817 20.5262 21.4051 21.0446ZM36.5851 36.5046L36.4751 36.6046L36.3851 36.6946L36.3051 36.7946V36.8446C36.2496 36.9269 36.209 37.0183 36.1851 37.1146V37.2546C36.1762 37.331 36.1762 37.4082 36.1851 37.4846V37.5846H36.4551C36.5628 37.5937 36.6697 37.6104 36.7751 37.6346V37.6946C36.7559 37.6446 36.7505 37.5905 36.7592 37.5378C36.768 37.485 36.7908 37.4356 36.8251 37.3946C36.8888 37.3129 36.9394 37.2218 36.9751 37.1246C37.0351 36.9146 36.8151 36.8246 36.7451 36.6546C36.7348 36.6017 36.7348 36.5474 36.7451 36.4946L36.5851 36.5046ZM14.5151 37.3146L14.4551 36.6846C14.4551 37.1146 14.5351 37.5346 14.5751 37.9446C14.5751 37.8446 14.5751 37.8646 14.6351 37.8946C14.7166 37.9215 14.8002 37.9416 14.8851 37.9546L15.4751 38.0546L16.0951 38.1446L16.6651 38.2346H16.5851C16.1579 38.1172 15.7373 37.977 15.3251 37.8146C15.1113 37.7146 14.9043 37.6011 14.7051 37.4746L14.5351 37.3446L14.5151 37.3146ZM35.9051 37.5746C35.5651 37.5746 35.2251 37.5746 34.9051 37.5746C34.228 37.6437 33.5586 37.7742 32.9051 37.9646L32.3651 38.1246V38.3446L32.4751 38.4146L32.8651 38.6446L33.1951 38.5546C33.8044 38.3708 34.4259 38.2305 35.0551 38.1346C35.6172 38.033 36.193 38.033 36.7551 38.1346H36.6951C36.5858 38.0873 36.4845 38.0232 36.3951 37.9446C36.3065 37.8456 36.2385 37.7301 36.1951 37.6046H35.9551L35.9051 37.5746ZM41.0251 36.8146C40.6951 36.8146 40.3651 36.9246 40.0251 36.9946L39.0851 37.2746L38.2251 37.5246L37.7851 37.7546L37.5851 37.8646H37.5151V37.8146C37.5673 37.7427 37.6047 37.6611 37.6251 37.5746C37.6299 37.5314 37.6299 37.4878 37.6251 37.4446C37.6338 37.3748 37.6338 37.3043 37.6251 37.2346C37.629 37.198 37.629 37.1611 37.6251 37.1246C37.5226 37.1522 37.4315 37.2117 37.3651 37.2946C37.1951 37.4746 37.0951 37.6646 36.8651 37.7046H36.9351L37.1051 37.7946C37.3698 37.9556 37.571 38.2027 37.6751 38.4946C37.7423 38.6609 37.799 38.8312 37.8451 39.0046L38.1051 39.9146C38.2651 40.5146 38.4151 41.1046 38.6051 41.6546C38.8904 42.7005 39.4867 43.6351 40.3151 44.3346C41.2032 44.9393 42.2418 45.2855 43.3151 45.3346C44.3859 45.4677 45.473 45.346 46.4879 44.9793C47.5028 44.6126 48.4166 44.0114 49.1551 43.2246C49.4649 42.8002 49.7015 42.327 49.8551 41.8246C50.0267 41.2628 50.167 40.6919 50.2751 40.1146C50.3645 39.4472 50.5427 38.7947 50.8051 38.1746C50.9215 37.8867 51.0989 37.6274 51.3251 37.4146L51.4751 37.2746L51.1551 37.2246C50.4951 37.1046 49.8251 37.0146 49.0951 36.9246L47.0951 36.7246C46.4314 36.6405 45.7639 36.5904 45.0951 36.5746C43.734 36.5343 42.372 36.6146 41.0251 36.8146ZM14.7451 41.6346C14.7658 41.641 14.7849 41.6519 14.8011 41.6664C14.8172 41.6809 14.83 41.6988 14.8386 41.7188C14.8472 41.7387 14.8513 41.7603 14.8507 41.7821C14.8501 41.8038 14.8447 41.8251 14.8351 41.8446C14.8249 41.8681 14.8099 41.8892 14.7909 41.9065C14.7719 41.9237 14.7495 41.9367 14.7251 41.9446C14.3441 42.042 14.0128 42.2771 13.7951 42.6046C13.6988 42.7671 13.636 42.9473 13.6102 43.1345C13.5845 43.3216 13.5963 43.512 13.6451 43.6946C13.7455 44.1193 13.9444 44.5144 14.2258 44.848C14.5073 45.1816 14.8633 45.4442 15.2651 45.6146C15.3027 45.6302 15.333 45.6596 15.3497 45.6967C15.3665 45.7339 15.3684 45.776 15.3551 45.8146C15.3382 45.8419 15.3147 45.8644 15.2867 45.8802C15.2587 45.8959 15.2272 45.9043 15.1951 45.9046C14.659 45.8333 14.1559 45.6056 13.7486 45.2498C13.3412 44.8941 13.0479 44.4262 12.9051 43.9046C12.8147 43.6175 12.7902 43.3138 12.8335 43.016C12.8768 42.7182 12.9867 42.434 13.1551 42.1846C13.329 41.9378 13.5761 41.7519 13.8614 41.6532C14.1467 41.5545 14.4558 41.548 14.7451 41.6346ZM23.7451 36.9246C22.3339 36.9843 20.9595 37.3932 19.7451 38.1146C19.6351 38.1746 19.4951 38.2646 19.3051 38.3546C19.1914 38.4 19.0744 38.4368 18.9551 38.4646C18.8586 38.4729 18.7616 38.4729 18.6651 38.4646H17.8651L17.4751 38.4046H17.5251C17.8298 38.4379 18.1095 38.5886 18.3051 38.8246C18.8667 39.7898 19.2876 40.8303 19.5551 41.9146C19.8346 42.8431 20.2672 43.7185 20.8351 44.5046C21.4653 45.1948 22.2501 45.7259 23.1251 46.0546C24.0135 46.4063 24.9596 46.5895 25.9151 46.5946C26.8349 46.6238 27.7489 46.439 28.5851 46.0546C29.3775 45.6025 30.0604 44.981 30.5851 44.2346C31.6275 42.7972 32.2129 41.0793 32.2651 39.3046V38.3746L32.0051 38.2346C31.4796 37.9644 30.9348 37.7338 30.3751 37.5446C29.6797 37.3108 28.9629 37.1467 28.2351 37.0546C26.7323 36.8722 25.2159 36.8287 23.7051 36.9246H23.7451ZM13.0751 37.9246H12.6551C12.6551 37.9246 12.6551 37.9246 12.6051 37.9246H12.5251C12.4145 37.9695 12.313 38.0338 12.2251 38.1146C12.1156 38.257 12.0465 38.4262 12.0251 38.6046C11.9751 38.8846 11.9551 39.2746 11.9251 39.6746L11.8551 40.8246C11.8249 41.3141 11.8249 41.805 11.8551 42.2946C11.8551 42.1146 11.9151 41.9446 11.9551 41.7746C12.0351 41.4346 12.1751 41.1946 12.2251 40.9746C12.2581 40.7056 12.2581 40.4336 12.2251 40.1646C12.2248 40.1227 12.2399 40.0823 12.2676 40.0509C12.2953 40.0195 12.3335 39.9995 12.3751 39.9946C12.4006 39.9957 12.4256 40.0026 12.4481 40.0147C12.4706 40.0268 12.4901 40.0439 12.5051 40.0646C12.7389 40.327 12.8856 40.6554 12.9251 41.0046C12.9254 41.3415 12.8851 41.6773 12.8051 42.0046C12.6968 42.5375 12.6732 43.0842 12.7351 43.6246C12.7945 44.1759 12.9361 44.7152 13.1551 45.2246C13.3562 45.7398 13.7038 46.1848 14.1551 46.5046C14.1898 46.5255 14.2153 46.5588 14.2265 46.5977C14.2376 46.6367 14.2335 46.6785 14.2151 46.7146C14.1977 46.7431 14.1724 46.766 14.1421 46.7802C14.1119 46.7944 14.0781 46.7994 14.0451 46.7946C13.5466 46.6561 13.1117 46.3485 12.8151 45.9246C12.9691 46.4964 13.086 47.0776 13.1651 47.6646C13.2351 48.0446 13.3051 48.4146 13.4051 48.7846C13.4831 49.1441 13.6328 49.4842 13.8451 49.7846C13.9696 49.8894 14.1158 49.9653 14.2731 50.0068C14.4305 50.0483 14.5951 50.0544 14.7551 50.0246C15.1051 50.0246 15.4851 49.8246 15.5051 49.5646H15.5851C15.5851 49.1446 15.5351 48.7246 15.5151 48.3046C15.5151 47.2046 15.5151 46.1146 15.4651 45.0246C15.4736 43.9462 15.4268 42.8682 15.3251 41.7946C15.2451 40.7746 15.1451 39.7546 15.0251 38.7346L15.2551 38.8046L14.6251 38.6046C14.5122 38.5574 14.402 38.504 14.2951 38.4446C14.2076 38.4034 14.1311 38.3421 14.072 38.2656C14.0129 38.1891 13.9728 38.0996 13.9551 38.0046H14.0951C13.7429 37.9683 13.3892 37.9483 13.0351 37.9446L13.0751 37.9246ZM40.0051 9.25457C39.844 9.35943 39.7267 9.51942 39.6751 9.70457C40.8651 9.89457 42.0351 10.1246 43.2051 10.4246C42.9124 10.6397 42.5667 10.7711 42.2051 10.8046C43.046 10.8885 43.8672 11.1115 44.6351 11.4646C44.4251 11.6246 44.1951 11.7746 43.9751 11.9346C46.1932 12.3804 48.2737 13.347 50.0451 14.7546L48.8251 14.9746C50.9397 16.1647 52.7052 17.8887 53.9451 19.9746C53.7824 20.0314 53.6098 20.0544 53.4379 20.0424C53.266 20.0304 53.0983 19.9835 52.9451 19.9046C52.9912 19.9879 53.0084 20.0841 52.9939 20.1782C52.9794 20.2723 52.9341 20.359 52.8651 20.4246C52.6397 20.5488 52.3793 20.5945 52.1251 20.5546C52.5248 20.7795 52.838 21.1315 53.0151 21.5546C52.2851 21.4246 51.5651 21.2946 50.8451 21.1846C50.6051 21.1846 50.3151 21.1146 50.1551 21.2846C50.069 21.4183 50.027 21.5757 50.0351 21.7346C49.8468 23.7292 49.8234 25.736 49.9651 27.7346C50.2953 29.6967 50.4426 31.6852 50.4051 33.6746C50.414 33.7073 50.414 33.7418 50.4051 33.7746C50.4601 34.0687 50.4601 34.3705 50.4051 34.6646V34.5146L51.5351 34.7146C51.9671 34.7925 52.3919 34.9062 52.8051 35.0546C52.926 35.102 53.043 35.1588 53.1551 35.2246L53.2751 35.3046C53.4175 35.4249 53.5362 35.5707 53.6251 35.7346C53.702 35.8786 53.756 36.0338 53.7851 36.1946C53.7919 36.2906 53.7747 36.3868 53.7351 36.4746C53.5959 36.7332 53.3838 36.9454 53.1251 37.0846L52.7951 37.6246C52.5825 37.7176 52.3923 37.8549 52.2371 38.0274C52.0819 38.1998 51.9653 38.4034 51.8951 38.6246C51.7531 39.1712 51.666 39.7306 51.6351 40.2946C51.5764 40.941 51.4728 41.5825 51.3251 42.2146C51.168 42.9216 50.8943 43.5975 50.5151 44.2146C50.2963 44.5427 50.0487 44.8506 49.7751 45.1346L49.8751 44.3846C49.6993 45.6447 49.5892 46.9131 49.5451 48.1846C49.5451 49.4646 49.4651 50.7446 49.4551 52.0246H49.1551C49.1551 50.7546 49.0251 49.4746 48.9651 48.1946C48.8951 47.4446 48.8451 46.6946 48.7951 45.9346C48.298 46.2787 47.7606 46.5608 47.1951 46.7746C45.895 47.2522 44.5022 47.4233 43.1251 47.2746C41.6998 47.1682 40.3433 46.6193 39.2451 45.7046C38.2157 44.7483 37.4979 43.5043 37.1851 42.1346C37.0051 41.5046 36.8551 40.8946 36.7251 40.2946L36.4951 39.4146C36.4951 39.2846 36.4151 39.1146 36.3851 39.0446C36.2253 39.034 36.0649 39.034 35.9051 39.0446C35.6289 39.0476 35.3539 39.0811 35.0851 39.1446C34.762 39.2062 34.4467 39.3035 34.1451 39.4346V39.7946C34.0195 41.812 33.2914 43.7454 32.0551 45.3446C31.3422 46.3045 30.4185 47.088 29.3551 47.6346C28.8051 47.891 28.2233 48.0726 27.6251 48.1746C27.0508 48.2746 26.4677 48.3148 25.8851 48.2946C24.7268 48.2505 23.587 47.9893 22.5251 47.5246C21.4331 47.0653 20.4663 46.3523 19.7051 45.4446C19.3551 44.9634 19.0756 44.4347 18.8751 43.8746C18.6851 43.3446 18.5151 42.8746 18.3651 42.3046C18.2004 41.4405 17.956 40.5935 17.6351 39.7746L17.4851 39.4846H17.4051C17.3456 39.4407 17.2774 39.41 17.2051 39.3946C17.0225 39.3227 16.8354 39.2625 16.6451 39.2146L16.4151 39.1546V39.6646C16.4151 40.3846 16.4151 41.1146 16.4151 41.8346C16.4151 42.9146 16.4151 44.0446 16.3251 45.1146C16.2351 46.1846 16.1951 47.2846 16.1751 48.3746C16.1257 49.4466 16.2029 50.5207 16.4051 51.5746L16.1051 51.6546C15.9804 51.1378 15.8902 50.6133 15.8351 50.0846C15.7759 50.1524 15.7087 50.2128 15.6351 50.2646C15.4445 50.3791 15.2342 50.4571 15.0151 50.4946C14.7901 50.5506 14.555 50.5527 14.3291 50.5005C14.1032 50.4484 13.8928 50.3436 13.7151 50.1946C13.4105 49.8841 13.1812 49.5077 13.0451 49.0946C12.8991 48.7121 12.7756 48.3214 12.6751 47.9246C12.5074 47.1747 12.2627 46.4442 11.9451 45.7446C11.6451 45.0446 11.2751 44.3246 11.0051 43.5346C10.7397 42.7414 10.5358 41.929 10.3951 41.1046L10.1851 39.9046C10.1065 39.4788 10.063 39.0474 10.0551 38.6146C10.0485 37.9985 10.2376 37.3963 10.5951 36.8946C10.7956 36.6256 11.0472 36.3988 11.3354 36.2272C11.6237 36.0556 11.943 35.9425 12.2751 35.8946C12.4447 35.8793 12.6154 35.8793 12.7851 35.8946C12.9676 35.9066 13.1485 35.9367 13.3251 35.9846C13.5357 36.0564 13.732 36.1648 13.9051 36.3046C13.3994 34.879 13.0637 33.3988 12.9051 31.8946C12.8538 31.073 12.9177 30.2484 13.0951 29.4446C13.5551 26.7779 14.0217 24.0879 14.4951 21.3746L15.2151 20.8546C15.3494 20.2771 15.64 19.7478 16.0551 19.3246L17.5251 17.4946C17.4048 17.3085 17.3237 17.0999 17.2868 16.8815C17.2499 16.663 17.2578 16.4393 17.3102 16.2241C17.3627 16.0088 17.4584 15.8065 17.5916 15.6295C17.7248 15.4525 17.8927 15.3045 18.0851 15.1946L16.7051 15.0446C17.1334 14.827 17.6048 14.7075 18.0851 14.6946C19.3151 14.4446 20.0851 13.2646 21.2651 12.6946C21.8251 12.4346 22.4351 12.3346 23.0151 12.1246C23.5135 11.9012 23.9978 11.6474 24.4651 11.3646C28.9751 8.67457 34.6551 8.93457 39.9651 9.27457L40.0051 9.25457Z" fill="white"/>
<defs>
<linearGradient id="paint0_linear_2016_148" x1="9.5" y1="5" x2="54" y2="64" gradientUnits="userSpaceOnUse">
<stop stop-color="#1D8392"/>
<stop offset="1" stop-color="#504C7A"/>
</linearGradient>
</defs>
</svg>
